<?xml version="1.0" encoding="utf-8"?>
<svg viewBox="-329.091 465.13 403.134 403.134" xmlns="http://www.w3.org/2000/svg">
  <defs>
    <style>
      .cls-1 {
        fill: #e50914;
      }

      .cls-2 {
        fill: #fff;
      }

      .cls-2, .cls-3 {
        fill-rule: evenodd;
      }

      .cls-4 {
        fill: none;
      }

      .cls-5 {
        clip-path: url(#clippath);
      }
    </style>
  </defs>
  <rect x="-329.091" y="465.13" width="403.134" height="403.134" style="fill: rgb(216, 216, 216);"/>
  <g transform="matrix(1, 0, 0, 1, -273.3955383300781, 403.8208312988281)">
    <path class="cls-1" d="M 220.555 227.878 L 220.555 291.747 C 224.045 292.032 227.525 292.328 230.995 292.655 L 230.995 227.878 L 220.555 227.878 Z" style="fill: rgb(216, 31, 39);"/>
    <path class="cls-1" d="M 180.499 238.768 L 180.499 227.881 L 151.339 227.881 L 151.339 288.608 L 161.779 288.608 L 161.779 263.688 L 175.939 263.688 L 175.939 252.895 L 161.779 252.895 L 161.779 238.778 L 180.489 238.778 L 180.499 238.768 Z" style="fill: rgb(216, 31, 39);"/>
    <path class="cls-1" d="M 256.484 246.329 L 249.392 227.871 L 237.75 227.869 L 250.413 260.699 L 236.4 292.943 C 240.181 293.319 244.321 293.814 248.082 294.231 L 255.923 275.503 L 263.7 295.905 C 267.801 296.437 275.812 297.897 275.812 297.897 L 262.064 261.179 L 275.849 227.86 L 264.059 227.855 L 256.484 246.329 Z" style="fill: rgb(216, 31, 39);"/>
    <path class="cls-1" d="M 196.819 279.167 L 196.819 227.884 L 186.379 227.884 L 186.379 289.595 C 195.869 289.943 205.319 290.451 214.739 291.105 L 214.739 280.234 C 208.789 279.812 202.809 279.463 196.829 279.167 L 196.819 279.167 Z" style="fill: rgb(216, 31, 39);"/>
    <path class="cls-1" d="M 60.789 227.865 L 60.901 292.96 L 71.388 292.16 L 71.203 227.884 L 60.789 227.865 Z" style="fill: rgb(216, 31, 39);"/>
    <path class="cls-1" d="M 20.141 227.884 L 30.532 227.886 L 38.43 265.411 L 44.594 227.882 L 55.56 227.881 L 55.453 293.654 L 44.654 294.785 L 45.196 259.478 L 41.689 283.45 L 34.342 283.645 L 31.276 259.38 L 31.336 296.484 L 20.247 297.978 L 20.141 227.884 Z" style="fill: rgb(216, 31, 39);"/>
    <path class="cls-1" d="M 85.296 227.877 L 97.233 227.869 C 100.513 247.709 108.263 289.489 108.263 289.489 L 97.852 290.018 L 95.888 275.136 L 88.492 275.431 L 87.128 290.953 L 76.698 291.738 L 85.296 227.877 Z M 84.315 256.83 C 83.598 257.244 83.491 258.399 84.075 259.409 C 84.659 260.42 85.713 260.903 86.429 260.489 C 87.145 260.075 87.253 258.921 86.669 257.91 C 86.085 256.9 85.031 256.416 84.315 256.83 Z M 88.925 252.802 C 88.108 253.021 87.681 254.106 87.971 255.225 C 88.261 256.345 89.158 257.076 89.974 256.857 C 90.791 256.639 91.218 255.554 90.928 254.434 C 90.638 253.314 89.741 252.584 88.925 252.802 Z M 95.193 252.813 C 94.391 252.614 93.516 253.362 93.238 254.483 C 92.959 255.604 93.384 256.674 94.186 256.873 C 94.988 257.072 95.864 256.324 96.142 255.203 C 96.42 254.082 95.995 253.012 95.193 252.813 Z M 99.792 256.84 C 99.073 256.427 98.019 256.912 97.439 257.923 C 96.858 258.933 96.97 260.088 97.689 260.501 C 98.407 260.914 99.461 260.429 100.041 259.418 C 100.622 258.407 100.51 257.253 99.792 256.84 Z M 92.079 258.926 L 92.038 258.927 C 90.525 259.045 90.256 259.313 88.662 261.612 C 87.702 262.998 86.347 264.252 87.307 265.93 C 88.042 267.212 90.473 266.901 91.931 266.67 L 92.236 266.671 C 93.694 266.902 96.081 267.212 96.815 265.929 C 97.776 264.252 96.421 262.998 95.46 261.611 C 93.867 259.313 93.593 259.044 92.079 258.926 Z" style="fill: rgb(216, 31, 39);"/>
    <path class="cls-1" d="M 112.959 268.934 L 112.959 227.774 L 123.219 227.774 L 123.219 270.219 C 123.219 276.006 123.859 281.192 129.209 281.192 C 134.559 281.192 135.269 276.006 135.269 270.219 L 135.269 227.774 L 145.459 227.774 L 145.459 268.944 C 145.459 281.719 142.109 289.455 129.209 289.455 C 116.309 289.455 112.959 281.719 112.959 268.944 L 112.959 268.934 Z" style="fill: rgb(216, 31, 39);"/>
  </g>
</svg>