<svg xmlns="http://www.w3.org/2000/svg" viewBox="20.129 227.599 255.72 70.204"><path fill="#d81f27" d="M220.555 227.774v63.869c3.49.285 6.97.581 10.44.908v-64.777h-10.44ZM180.499 238.653v-10.887h-29.16v60.727h10.44v-24.92h14.16V252.78h-14.16v-14.117h18.71l.01-.01ZM256.484 246.154l-7.092-18.458-11.642-.002 12.663 32.83-14.013 32.244c3.781.376 7.921.871 11.682 1.288l7.841-18.728 7.777 20.402c4.101.532 12.112 1.992 12.112 1.992l-13.748-36.718 13.785-33.319-11.79-.005-7.575 18.474ZM196.819 278.992v-51.283h-10.44v61.711c9.49.348 18.94.856 28.36 1.51v-10.871c-5.95-.422-11.93-.771-17.91-1.067h-.01ZM60.789 227.729l.112 65.095c3.48-.31 7.007-.54 10.487-.8l-.185-64.276-10.414-.019ZM20.144 227.75l10.412.012c2.8 13.87 5.074 23.604 7.874 37.474 1.81-13.84 6.15-37.471 6.15-37.471l10.98-.09c.03 20.84-.137 44.974-.107 65.804-2.32.23-10.799 1.131-10.799 1.131l.542-35.307-3.507 23.972-7.347.195-3.066-24.265.06 37.104s-8.569 1.274-11.089 1.494c.08-22.21-.183-47.843-.103-70.053ZM85.296 227.727l11.937-.008c3.28 19.84 11.03 61.62 11.03 61.62l-10.411.529-1.964-14.882-7.396.295-1.364 15.522-10.43.785 8.598-63.861Zm-.981 28.953c-.717.414-.824 1.569-.24 2.579.584 1.011 1.638 1.494 2.354 1.08.716-.414.824-1.568.24-2.579-.584-1.01-1.638-1.494-2.354-1.08Zm4.61-4.028c-.817.219-1.244 1.304-.954 2.423.29 1.12 1.187 1.851 2.003 1.632.817-.218 1.244-1.303.954-2.423-.29-1.12-1.187-1.85-2.003-1.632Zm6.268.011c-.802-.199-1.677.549-1.955 1.67-.279 1.121.146 2.191.948 2.39.802.199 1.678-.549 1.956-1.67s-.147-2.191-.949-2.39Zm4.599 4.027c-.719-.413-1.773.072-2.353 1.083-.581 1.01-.469 2.165.25 2.578.718.413 1.772-.072 2.352-1.083.581-1.011.469-2.165-.249-2.578Zm-7.713 2.086-.041.001c-1.513.118-1.782.386-3.376 2.685-.96 1.386-2.315 2.64-1.355 4.318.735 1.282 3.166.971 4.624.74l.305.001c1.458.231 3.845.541 4.579-.742.961-1.677-.394-2.931-1.355-4.318-1.593-2.298-1.867-2.567-3.381-2.685ZM112.959 268.759v-41.16h10.26v42.445c0 5.787.64 10.973 5.99 10.973 5.35 0 6.06-5.186 6.06-10.973v-42.445h10.19v41.17c0 12.775-3.35 20.511-16.25 20.511s-16.25-7.736-16.25-20.511v-.01Z" /></svg>
